<svg xmlns="http://www.w3.org/2000/svg" width="787" height="559" id="search-hacker"><defs><linearGradient id="a" x1="50.001%" x2="50.001%" y1="99.999%" y2="-11.28%"><stop offset="0%" stop-color="#70B"></stop><stop offset="52.41%" stop-color="#00008B"></stop><stop offset="100%" stop-color="#00003B"></stop></linearGradient><linearGradient id="b" x1="59.435%" x2="39.72%" y1="3.098%" y2="101.137%"><stop offset="0%" stop-color="#88CFDA"></stop><stop offset=".834%" stop-color="#89CFD9"></stop><stop offset="47.84%" stop-color="#C8D9BB"></stop><stop offset="82.18%" stop-color="#F0DFA7"></stop><stop offset="100%" stop-color="#FFE1A0"></stop></linearGradient><linearGradient id="c" x1="-.001%" x2="100%" y1="49.992%" y2="49.992%"><stop offset="0%" stop-color="#FFF"></stop><stop offset="12.25%" stop-color="#FBFDFF"></stop><stop offset="24.76%" stop-color="#EFF5FF"></stop><stop offset="37.4%" stop-color="#DAE9FF"></stop><stop offset="50.13%" stop-color="#BDD9FF"></stop><stop offset="62.95%" stop-color="#98C3FF"></stop><stop offset="75.82%" stop-color="#6BA9FF"></stop><stop offset="88.49%" stop-color="#378AFF"></stop><stop offset="100%" stop-color="#006AFF"></stop></linearGradient><linearGradient id="d" x1="49.999%" x2="49.999%" y1="-73.516%" y2="143.553%"><stop offset="0%" stop-color="#1DACFF"></stop><stop offset="7.88%" stop-color="#20A9FB"></stop><stop offset="15.92%" stop-color="#28A0EF"></stop><stop offset="24.04%" stop-color="#3690DA"></stop><stop offset="32.22%" stop-color="#497BBE"></stop><stop offset="40.36%" stop-color="#625F99"></stop><stop offset="41.17%" stop-color="#655C95"></stop><stop offset="48.47%" stop-color="#6F5F91"></stop><stop offset="60.72%" stop-color="#896886"></stop><stop offset="76.39%" stop-color="#B37774"></stop><stop offset="94.72%" stop-color="#ED8C5C"></stop><stop offset="100%" stop-color="#FF9254"></stop></linearGradient><linearGradient id="e" x1="-.002%" x2="99.994%" y1="50%" y2="50%"><stop offset="0%" stop-color="#311842"></stop><stop offset="46.11%" stop-color="#190C4B"></stop><stop offset="100%" stop-color="#000054"></stop></linearGradient><linearGradient id="f" x1="49.96%" x2="49.96%" y1="96.954%" y2="-1.526%"><stop offset="0%" stop-color="#FFF"></stop><stop offset="17.96%" stop-color="#D6E7FF"></stop><stop offset="58.54%" stop-color="#6FABFF"></stop><stop offset="100%" stop-color="#006AFF"></stop></linearGradient><linearGradient id="g" x1="49.97%" x2="49.97%" y1="96.954%" y2="-1.526%"><stop offset="0%" stop-color="#FFF"></stop><stop offset="12.25%" stop-color="#FBFDFF"></stop><stop offset="24.76%" stop-color="#EFF5FF"></stop><stop offset="37.4%" stop-color="#DAE9FF"></stop><stop offset="50.13%" stop-color="#BDD9FF"></stop><stop offset="62.95%" stop-color="#98C3FF"></stop><stop offset="75.82%" stop-color="#6BA9FF"></stop><stop offset="88.49%" stop-color="#378AFF"></stop><stop offset="100%" stop-color="#006AFF"></stop></linearGradient><linearGradient id="h" x1=".006%" x2="100.008%" y1="50%" y2="50%"><stop offset="0%" stop-color="#311842"></stop><stop offset="46.11%" stop-color="#190C4B"></stop><stop offset="100%" stop-color="#000054"></stop></linearGradient><linearGradient id="i" x1="50.007%" x2="50.007%" y1="-2.096%" y2="361.675%"><stop offset="0%" stop-color="#7633FF"></stop><stop offset="15.85%" stop-color="#7137FF"></stop><stop offset="35.35%" stop-color="#6243FF"></stop><stop offset="56.76%" stop-color="#4957FF"></stop><stop offset="79.37%" stop-color="#2672FF"></stop><stop offset="100%" stop-color="#0090FF"></stop></linearGradient><linearGradient id="j" x1="50.007%" x2="50.007%" y1="-116.546%" y2="261.011%"><stop offset="0%" stop-color="#7633FF"></stop><stop offset="15.85%" stop-color="#7137FF"></stop><stop offset="35.35%" stop-color="#6243FF"></stop><stop offset="56.76%" stop-color="#4957FF"></stop><stop offset="79.37%" stop-color="#2672FF"></stop><stop offset="100%" stop-color="#0090FF"></stop></linearGradient><linearGradient id="k" x1="50.007%" x2="50.007%" y1="-225.092%" y2="147.389%"><stop offset="0%" stop-color="#7633FF"></stop><stop offset="15.85%" stop-color="#7137FF"></stop><stop offset="35.35%" stop-color="#6243FF"></stop><stop offset="56.76%" stop-color="#4957FF"></stop><stop offset="79.37%" stop-color="#2672FF"></stop><stop offset="100%" stop-color="#0090FF"></stop></linearGradient><linearGradient id="l" x1="49.984%" x2="49.984%" y1="-65.762%" y2="141.482%"><stop offset="0%" stop-color="#1DACFF"></stop><stop offset="13.55%" stop-color="#1CA9FB"></stop><stop offset="27.39%" stop-color="#1B9FEF"></stop><stop offset="41.38%" stop-color="#188EDA"></stop><stop offset="55.46%" stop-color="#1476BD"></stop><stop offset="69.62%" stop-color="#0F5898"></stop><stop offset="83.85%" stop-color="#08326B"></stop><stop offset="97.88%" stop-color="#010737"></stop><stop offset="100%" stop-color="#00002E"></stop></linearGradient><linearGradient id="m" x1="54.581%" x2="46.547%" y1="36.424%" y2="60.15%"><stop offset="0%" stop-color="#1DACFF"></stop><stop offset="13.55%" stop-color="#1CA9FB"></stop><stop offset="27.39%" stop-color="#1B9FEF"></stop><stop offset="41.38%" stop-color="#188EDA"></stop><stop offset="55.46%" stop-color="#1476BD"></stop><stop offset="69.62%" stop-color="#0F5898"></stop><stop offset="83.85%" stop-color="#08326B"></stop><stop offset="97.88%" stop-color="#010737"></stop><stop offset="100%" stop-color="#00002E"></stop></linearGradient><linearGradient id="n" x1="49.984%" x2="49.984%" y1="-1042.984%" y2="419.402%"><stop offset="0%" stop-color="#1DACFF"></stop><stop offset="13.55%" stop-color="#1CA9FB"></stop><stop offset="27.39%" stop-color="#1B9FEF"></stop><stop offset="41.38%" stop-color="#188EDA"></stop><stop offset="55.46%" stop-color="#1476BD"></stop><stop offset="69.62%" stop-color="#0F5898"></stop><stop offset="83.85%" stop-color="#08326B"></stop><stop offset="97.88%" stop-color="#010737"></stop><stop offset="100%" stop-color="#00002E"></stop></linearGradient><linearGradient id="o" x1="57.964%" x2="46.016%" y1="55.708%" y2="34.459%"><stop offset="0%" stop-color="#311842"></stop><stop offset="46.11%" stop-color="#190C4B"></stop><stop offset="100%" stop-color="#000054"></stop></linearGradient><linearGradient id="p" x1="50.035%" x2="50.035%" y1="96.954%" y2="-1.526%"><stop offset="0%" stop-color="#FFF"></stop><stop offset="9.75%" stop-color="#EFF6FF"></stop><stop offset="28.85%" stop-color="#C4DDFF"></stop><stop offset="55.46%" stop-color="#80B5FF"></stop><stop offset="88.23%" stop-color="#237FFF"></stop><stop offset="100%" stop-color="#006AFF"></stop></linearGradient><linearGradient id="q" x1="50.025%" x2="50.025%" y1="96.954%" y2="-1.526%"><stop offset="0%" stop-color="#FFF"></stop><stop offset="12.25%" stop-color="#FBFDFF"></stop><stop offset="24.76%" stop-color="#EFF5FF"></stop><stop offset="37.4%" stop-color="#DAE9FF"></stop><stop offset="50.13%" stop-color="#BDD9FF"></stop><stop offset="62.95%" stop-color="#98C3FF"></stop><stop offset="75.82%" stop-color="#6BA9FF"></stop><stop offset="88.49%" stop-color="#378AFF"></stop><stop offset="100%" stop-color="#006AFF"></stop></linearGradient><linearGradient id="r" x1=".004%" x2="100.007%" y1="50%" y2="50%"><stop offset="0%" stop-color="#311842"></stop><stop offset="46.11%" stop-color="#190C4B"></stop><stop offset="100%" stop-color="#000054"></stop></linearGradient><linearGradient id="s" x1="50.006%" x2="50.006%" y1="-2.003%" y2="345.733%"><stop offset="0%" stop-color="#7633FF"></stop><stop offset="15.85%" stop-color="#7137FF"></stop><stop offset="35.35%" stop-color="#6243FF"></stop><stop offset="56.76%" stop-color="#4957FF"></stop><stop offset="79.37%" stop-color="#2672FF"></stop><stop offset="100%" stop-color="#0090FF"></stop></linearGradient><linearGradient id="t" x1="50.006%" x2="50.006%" y1="-111.244%" y2="249.133%"><stop offset="0%" stop-color="#7633FF"></stop><stop offset="15.85%" stop-color="#7137FF"></stop><stop offset="35.35%" stop-color="#6243FF"></stop><stop offset="56.76%" stop-color="#4957FF"></stop><stop offset="79.37%" stop-color="#2672FF"></stop><stop offset="100%" stop-color="#0090FF"></stop></linearGradient><linearGradient id="u" x1="50.006%" x2="50.006%" y1="-225.092%" y2="147.389%"><stop offset="0%" stop-color="#7633FF"></stop><stop offset="15.85%" stop-color="#7137FF"></stop><stop offset="35.35%" stop-color="#6243FF"></stop><stop offset="56.76%" stop-color="#4957FF"></stop><stop offset="79.37%" stop-color="#2672FF"></stop><stop offset="100%" stop-color="#0090FF"></stop></linearGradient><linearGradient id="v" x1="49.983%" x2="49.983%" y1="-65.762%" y2="141.482%"><stop offset="0%" stop-color="#1DACFF"></stop><stop offset="13.55%" stop-color="#1CA9FB"></stop><stop offset="27.39%" stop-color="#1B9FEF"></stop><stop offset="41.38%" stop-color="#188EDA"></stop><stop offset="55.46%" stop-color="#1476BD"></stop><stop offset="69.62%" stop-color="#0F5898"></stop><stop offset="83.85%" stop-color="#08326B"></stop><stop offset="97.88%" stop-color="#010737"></stop><stop offset="100%" stop-color="#00002E"></stop></linearGradient><linearGradient id="w" x1="53.499%" x2="45.466%" y1="40.237%" y2="62.547%"><stop offset="0%" stop-color="#1DACFF"></stop><stop offset="13.55%" stop-color="#1CA9FB"></stop><stop offset="27.39%" stop-color="#1B9FEF"></stop><stop offset="41.38%" stop-color="#188EDA"></stop><stop offset="55.46%" stop-color="#1476BD"></stop><stop offset="69.62%" stop-color="#0F5898"></stop><stop offset="83.85%" stop-color="#08326B"></stop><stop offset="97.88%" stop-color="#010737"></stop><stop offset="100%" stop-color="#00002E"></stop></linearGradient><linearGradient id="x" x1="49.983%" x2="49.983%" y1="-1109.126%" y2="446.015%"><stop offset="0%" stop-color="#1DACFF"></stop><stop offset="13.55%" stop-color="#1CA9FB"></stop><stop offset="27.39%" stop-color="#1B9FEF"></stop><stop offset="41.38%" stop-color="#188EDA"></stop><stop offset="55.46%" stop-color="#1476BD"></stop><stop offset="69.62%" stop-color="#0F5898"></stop><stop offset="83.85%" stop-color="#08326B"></stop><stop offset="97.88%" stop-color="#010737"></stop><stop offset="100%" stop-color="#00002E"></stop></linearGradient><linearGradient id="y" x1="50.003%" x2="50.003%" y1="97.927%" y2="-.219%"><stop offset="0%" stop-color="#311842"></stop><stop offset="46.11%" stop-color="#190C4B"></stop><stop offset="100%" stop-color="#000054"></stop></linearGradient><linearGradient id="z" x1="-.009%" x2="99.999%" y1="50%" y2="50%"><stop offset="0%" stop-color="#FFF"></stop><stop offset="12.25%" stop-color="#FBFDFF"></stop><stop offset="24.76%" stop-color="#EFF5FF"></stop><stop offset="37.4%" stop-color="#DAE9FF"></stop><stop offset="50.13%" stop-color="#BDD9FF"></stop><stop offset="62.95%" stop-color="#98C3FF"></stop><stop offset="75.82%" stop-color="#6BA9FF"></stop><stop offset="88.49%" stop-color="#378AFF"></stop><stop offset="100%" stop-color="#006AFF"></stop></linearGradient><linearGradient id="A" x1=".003%" x2="99.995%" y1="50.001%" y2="50.001%"><stop offset="0%" stop-color="#FFF"></stop><stop offset="12.25%" stop-color="#FBFDFF"></stop><stop offset="24.76%" stop-color="#EFF5FF"></stop><stop offset="37.4%" stop-color="#DAE9FF"></stop><stop offset="50.13%" stop-color="#BDD9FF"></stop><stop offset="62.95%" stop-color="#98C3FF"></stop><stop offset="75.82%" stop-color="#6BA9FF"></stop><stop offset="88.49%" stop-color="#378AFF"></stop><stop offset="100%" stop-color="#006AFF"></stop></linearGradient><linearGradient id="B" x1="49.979%" x2="50.009%" y1="49.896%" y2="50.056%"><stop offset="0%" stop-color="#FFF"></stop><stop offset="12.25%" stop-color="#FBFDFF"></stop><stop offset="24.76%" stop-color="#EFF5FF"></stop><stop offset="37.4%" stop-color="#DAE9FF"></stop><stop offset="50.13%" stop-color="#BDD9FF"></stop><stop offset="62.95%" stop-color="#98C3FF"></stop><stop offset="75.82%" stop-color="#6BA9FF"></stop><stop offset="88.49%" stop-color="#378AFF"></stop><stop offset="100%" stop-color="#006AFF"></stop></linearGradient><linearGradient id="C" x1="-.002%" x2="99.999%" y1="50.005%" y2="50.005%"><stop offset="0%" stop-color="#311842"></stop><stop offset="46.11%" stop-color="#190C4B"></stop><stop offset="100%" stop-color="#000054"></stop></linearGradient><linearGradient id="D" x1="51.284%" x2="47.939%" y1="104.736%" y2="-35.417%"><stop offset="0%" stop-color="#0E0000"></stop><stop offset="14.05%" stop-color="#100003"></stop><stop offset="26.28%" stop-color="#15000E"></stop><stop offset="37.82%" stop-color="#1D0020"></stop><stop offset="48.95%" stop-color="#290039"></stop><stop offset="59.78%" stop-color="#38005A"></stop><stop offset="70.26%" stop-color="#4A0081"></stop><stop offset="72.67%" stop-color="#4F008B"></stop><stop offset="100%" stop-color="#4C24B1"></stop></linearGradient><linearGradient id="E" x1="104.298%" x2="32.146%" y1="1.504%" y2="70.093%"><stop offset="0%" stop-color="#FFF"></stop><stop offset=".776%" stop-color="#FDFEFF"></stop><stop offset="38.24%" stop-color="#92BFFF"></stop><stop offset="68.31%" stop-color="#4391FF"></stop><stop offset="89.52%" stop-color="#1375FF"></stop><stop offset="100%" stop-color="#006AFF"></stop></linearGradient><linearGradient id="F" x1="76.99%" x2="-11.981%" y1="81.437%" y2="-54.881%"><stop offset="0%" stop-color="#FFF"></stop><stop offset="12.25%" stop-color="#FBFDFF"></stop><stop offset="24.76%" stop-color="#EFF5FF"></stop><stop offset="37.4%" stop-color="#DAE9FF"></stop><stop offset="50.13%" stop-color="#BDD9FF"></stop><stop offset="62.95%" stop-color="#98C3FF"></stop><stop offset="75.82%" stop-color="#6BA9FF"></stop><stop offset="88.49%" stop-color="#378AFF"></stop><stop offset="100%" stop-color="#006AFF"></stop></linearGradient><linearGradient id="G" x1="49.985%" x2="49.985%" y1="-14.565%" y2="103.184%"><stop offset="0%" stop-color="#FFF"></stop><stop offset="15.25%" stop-color="#DEECFF"></stop><stop offset="48.94%" stop-color="#8ABAFF"></stop><stop offset="98.39%" stop-color="#046DFF"></stop><stop offset="100%" stop-color="#006AFF"></stop></linearGradient><linearGradient id="H" x1=".061%" x2="100.028%" y1="49.935%" y2="49.935%"><stop offset="0%" stop-color="#311842"></stop><stop offset="46.11%" stop-color="#190C4B"></stop><stop offset="100%" stop-color="#000054"></stop></linearGradient><linearGradient id="I" x1="-.064%" x2="100.075%" y1="50.344%" y2="50.344%"><stop offset="0%" stop-color="#311842"></stop><stop offset="46.11%" stop-color="#190C4B"></stop><stop offset="100%" stop-color="#000054"></stop></linearGradient><linearGradient id="J" x1=".071%" x2="100.077%" y1="49.969%" y2="49.969%"><stop offset="0%" stop-color="#311842"></stop><stop offset="46.11%" stop-color="#190C4B"></stop><stop offset="100%" stop-color="#000054"></stop></linearGradient><linearGradient id="K" x1="-.068%" x2="99.893%" y1="49.935%" y2="49.935%"><stop offset="0%" stop-color="#311842"></stop><stop offset="46.11%" stop-color="#190C4B"></stop><stop offset="100%" stop-color="#000054"></stop></linearGradient><linearGradient id="L" x1="-.004%" x2="100.076%" y1="49.594%" y2="49.594%"><stop offset="0%" stop-color="#311842"></stop><stop offset="46.11%" stop-color="#190C4B"></stop><stop offset="100%" stop-color="#000054"></stop></linearGradient><linearGradient id="M" x1="-.063%" x2="99.94%" y1="49.969%" y2="49.969%"><stop offset="0%" stop-color="#311842"></stop><stop offset="46.11%" stop-color="#190C4B"></stop><stop offset="100%" stop-color="#000054"></stop></linearGradient><linearGradient id="N" x1=".01%" x2="99.974%" y1="49.992%" y2="49.992%"><stop offset="0%" stop-color="#311842"></stop><stop offset="46.11%" stop-color="#190C4B"></stop><stop offset="100%" stop-color="#000054"></stop></linearGradient><linearGradient id="O" x1=".067%" x2="100.023%" y1="49.987%" y2="49.987%"><stop offset="0%" stop-color="#311842"></stop><stop offset="46.11%" stop-color="#190C4B"></stop><stop offset="100%" stop-color="#000054"></stop></linearGradient><linearGradient id="P" x1=".007%" x2="100.161%" y1="49.969%" y2="49.969%"><stop offset="0%" stop-color="#311842"></stop><stop offset="46.11%" stop-color="#190C4B"></stop><stop offset="100%" stop-color="#000054"></stop></linearGradient><linearGradient id="Q" x1="-.003%" x2="99.997%" y1="49.695%" y2="49.695%"><stop offset="0%" stop-color="#311842"></stop><stop offset="46.11%" stop-color="#190C4B"></stop><stop offset="100%" stop-color="#000054"></stop></linearGradient><linearGradient id="R" x1=".025%" x2="99.983%" y1="50.335%" y2="50.335%"><stop offset="0%" stop-color="#311842"></stop><stop offset="46.11%" stop-color="#190C4B"></stop><stop offset="100%" stop-color="#000054"></stop></linearGradient><linearGradient id="S" x1="82.757%" x2="34.784%" y1="30.693%" y2="70.138%"><stop offset="0%" stop-color="#270036"></stop><stop offset="59.36%" stop-color="#4F008B"></stop><stop offset="100%" stop-color="#4C24B1"></stop></linearGradient><linearGradient id="T" x1="16.513%" x2="57.633%" y1="33.108%" y2="62.844%"><stop offset="0%" stop-color="#270036"></stop><stop offset="59.36%" stop-color="#4F008B"></stop><stop offset="100%" stop-color="#4C24B1"></stop></linearGradient><linearGradient id="U" x1="50.005%" x2="50.005%" y1="-10.026%" y2="118.224%"><stop offset="0%" stop-color="#7633FF"></stop><stop offset="15.85%" stop-color="#7137FF"></stop><stop offset="35.35%" stop-color="#6243FF"></stop><stop offset="56.76%" stop-color="#4957FF"></stop><stop offset="79.37%" stop-color="#2672FF"></stop><stop offset="100%" stop-color="#0090FF"></stop></linearGradient><linearGradient id="V" x1="49.968%" x2="49.968%" y1="25.023%" y2="106.866%"><stop offset="0%" stop-color="#009AFF"></stop><stop offset="100%" stop-color="#FFF"></stop></linearGradient><linearGradient id="W" x1="49.999%" x2="49.999%" y1="-9.993%" y2="118.26%"><stop offset="0%" stop-color="#009AFF"></stop><stop offset="100%" stop-color="#FFF"></stop></linearGradient><linearGradient id="X" x1="50.008%" x2="50.008%" y1="-9.991%" y2="118.231%"><stop offset="0%" stop-color="#009AFF"></stop><stop offset="100%" stop-color="#FFF"></stop></linearGradient><linearGradient id="Y" x1="-9.208%" x2="103.282%" y1="65.033%" y2="33.731%"><stop offset="0%" stop-color="#009AFF"></stop><stop offset="100%" stop-color="#FFF"></stop></linearGradient><linearGradient id="Z" x1="106.467%" x2="3.406%" y1="60.613%" y2="37.881%"><stop offset="0%" stop-color="#009AFF"></stop><stop offset="100%" stop-color="#FFF"></stop></linearGradient><linearGradient id="aa" x1=".002%" x2="99.994%" y1="49.98%" y2="49.98%"><stop offset="0%" stop-color="#270036"></stop><stop offset="59.36%" stop-color="#4F008B"></stop><stop offset="100%" stop-color="#4C24B1"></stop></linearGradient><linearGradient id="ac" x1=".016%" x2="100.007%" y1="50.008%" y2="50.008%"><stop offset="0%" stop-color="#009AFF"></stop><stop offset="100%" stop-color="#FFF"></stop></linearGradient><linearGradient id="ad" x1=".022%" x2="100.016%" y1="50.008%" y2="50.008%"><stop offset="0%" stop-color="#009AFF"></stop><stop offset="100%" stop-color="#FFF"></stop></linearGradient><linearGradient id="ae" x1="-.024%" x2="99.913%" y1="50.019%" y2="50.019%"><stop offset="0%" stop-color="#009AFF"></stop><stop offset="100%" stop-color="#FFF"></stop></linearGradient><linearGradient id="af" x1="-.025%" x2="100.056%" y1="50.01%" y2="50.01%"><stop offset="0%" stop-color="#009AFF"></stop><stop offset="100%" stop-color="#FFF"></stop></linearGradient><linearGradient id="ag" x1="-.015%" x2="99.967%" y1="49.985%" y2="49.985%"><stop offset="0%" stop-color="#361A31"></stop><stop offset="51.34%" stop-color="#3B1868"></stop><stop offset="100%" stop-color="#1D0038"></stop></linearGradient><linearGradient id="ah" x1="39.442%" x2="49.834%" y1="212.256%" y2="52.913%"><stop offset="0%" stop-color="#1DACFF"></stop><stop offset="11.2%" stop-color="#20A9FB"></stop><stop offset="22.63%" stop-color="#28A0EF"></stop><stop offset="34.18%" stop-color="#3690DA"></stop><stop offset="45.8%" stop-color="#497BBE"></stop><stop offset="57.37%" stop-color="#625F99"></stop><stop offset="58.53%" stop-color="#655C95"></stop><stop offset="63.67%" stop-color="#6F5F91"></stop><stop offset="72.3%" stop-color="#896886"></stop><stop offset="83.36%" stop-color="#B37774"></stop><stop offset="96.28%" stop-color="#ED8C5C"></stop><stop offset="100%" stop-color="#FF9254"></stop></linearGradient><linearGradient id="ai" x1="-.013%" x2="99.969%" y1="49.99%" y2="49.99%"><stop offset="0%" stop-color="#361A31"></stop><stop offset="51.34%" stop-color="#3B1868"></stop><stop offset="100%" stop-color="#1D0038"></stop></linearGradient><linearGradient id="aj" x1="38.93%" x2="49.322%" y1="220.149%" y2="60.808%"><stop offset="0%" stop-color="#1DACFF"></stop><stop offset="11.2%" stop-color="#20A9FB"></stop><stop offset="22.63%" stop-color="#28A0EF"></stop><stop offset="34.18%" stop-color="#3690DA"></stop><stop offset="45.8%" stop-color="#497BBE"></stop><stop offset="57.37%" stop-color="#625F99"></stop><stop offset="58.53%" stop-color="#655C95"></stop><stop offset="63.67%" stop-color="#6F5F91"></stop><stop offset="72.3%" stop-color="#896886"></stop><stop offset="83.36%" stop-color="#B37774"></stop><stop offset="96.28%" stop-color="#ED8C5C"></stop><stop offset="100%" stop-color="#FF9254"></stop></linearGradient><linearGradient id="ak" x1="49.918%" x2="50.053%" y1="2.892%" y2="98.564%"><stop offset="0%" stop-color="#A1BAFF"></stop><stop offset="43.32%" stop-color="#FFF"></stop></linearGradient><linearGradient id="al" x1="51.395%" x2="48.495%" y1="51.653%" y2="48.753%"><stop offset="0%" stop-color="#1DACFF"></stop><stop offset="11.2%" stop-color="#20A9FB"></stop><stop offset="22.63%" stop-color="#28A0EF"></stop><stop offset="34.18%" stop-color="#3690DA"></stop><stop offset="45.8%" stop-color="#497BBE"></stop><stop offset="57.37%" stop-color="#625F99"></stop><stop offset="58.53%" stop-color="#655C95"></stop><stop offset="63.67%" stop-color="#6F5F91"></stop><stop offset="72.3%" stop-color="#896886"></stop><stop offset="83.36%" stop-color="#B37774"></stop><stop offset="96.28%" stop-color="#ED8C5C"></stop><stop offset="100%" stop-color="#FF9254"></stop></linearGradient><linearGradient id="am" x1="54.029%" x2="45.727%" y1="57.299%" y2="44.535%"><stop offset="0%" stop-color="#1DACFF"></stop><stop offset="11.2%" stop-color="#20A9FB"></stop><stop offset="22.63%" stop-color="#28A0EF"></stop><stop offset="34.18%" stop-color="#3690DA"></stop><stop offset="45.8%" stop-color="#497BBE"></stop><stop offset="57.37%" stop-color="#625F99"></stop><stop offset="58.53%" stop-color="#655C95"></stop><stop offset="63.67%" stop-color="#6F5F91"></stop><stop offset="72.3%" stop-color="#896886"></stop><stop offset="83.36%" stop-color="#B37774"></stop><stop offset="96.28%" stop-color="#ED8C5C"></stop><stop offset="100%" stop-color="#FF9254"></stop></linearGradient><linearGradient id="an" x1="42.072%" x2="57.297%" y1="-23.443%" y2="117.423%"><stop offset="0%" stop-color="#090000"></stop><stop offset="43.32%" stop-color="#FFF"></stop><stop offset="100%"></stop></linearGradient><linearGradient id="ao" x1="36.573%" x2="70.713%" y1="75.877%" y2="23.791%"><stop offset="0%" stop-color="#270036"></stop><stop offset="59.36%" stop-color="#22003D"></stop><stop offset="100%" stop-color="#272454"></stop></linearGradient><linearGradient id="ap" x1="45.468%" x2="55.129%" y1="11.269%" y2="104.821%"><stop offset="0%" stop-color="#311842"></stop><stop offset="46.11%" stop-color="#190C4B"></stop><stop offset="100%" stop-color="#000054"></stop></linearGradient><linearGradient id="aq" x1="16.547%" x2="67.132%" y1="68.826%" y2="40.387%"><stop offset="0%" stop-color="#270036"></stop><stop offset="59.36%" stop-color="#4F008B"></stop><stop offset="100%" stop-color="#4C24B1"></stop></linearGradient><linearGradient id="ar" x1=".029%" x2="100.012%" y1="50.019%" y2="50.019%"><stop offset="0%" stop-color="#311842"></stop><stop offset="46.11%" stop-color="#190C4B"></stop><stop offset="100%" stop-color="#000054"></stop></linearGradient><linearGradient id="as" x1="55.031%" x2="46.691%" y1="61.059%" y2="43.26%"><stop offset="0%" stop-color="#1DACFF"></stop><stop offset="11.2%" stop-color="#20A9FB"></stop><stop offset="22.63%" stop-color="#28A0EF"></stop><stop offset="34.18%" stop-color="#3690DA"></stop><stop offset="45.8%" stop-color="#497BBE"></stop><stop offset="57.37%" stop-color="#625F99"></stop><stop offset="58.53%" stop-color="#655C95"></stop><stop offset="63.67%" stop-color="#6F5F91"></stop><stop offset="72.3%" stop-color="#896886"></stop><stop offset="83.36%" stop-color="#B37774"></stop><stop offset="96.28%" stop-color="#ED8C5C"></stop><stop offset="100%" stop-color="#FF9254"></stop></linearGradient><linearGradient id="at" x1="47.584%" x2="55.142%" y1="9.688%" y2="96.999%"><stop offset="0%" stop-color="#090000"></stop><stop offset="43.32%" stop-color="#FFF"></stop><stop offset="100%"></stop></linearGradient><linearGradient id="au" x1="52.55%" x2="49.357%" y1="52.579%" y2="48.58%"><stop offset="0%" stop-color="#1DACFF"></stop><stop offset="11.2%" stop-color="#20A9FB"></stop><stop offset="22.63%" stop-color="#28A0EF"></stop><stop offset="34.18%" stop-color="#3690DA"></stop><stop offset="45.8%" stop-color="#497BBE"></stop><stop offset="57.37%" stop-color="#625F99"></stop><stop offset="58.53%" stop-color="#655C95"></stop><stop offset="63.67%" stop-color="#6F5F91"></stop><stop offset="72.3%" stop-color="#896886"></stop><stop offset="83.36%" stop-color="#B37774"></stop><stop offset="96.28%" stop-color="#ED8C5C"></stop><stop offset="100%" stop-color="#FF9254"></stop></linearGradient><linearGradient id="av" x1="57.752%" x2="48.395%" y1="61.993%" y2="44.962%"><stop offset="0%" stop-color="#1DACFF"></stop><stop offset="11.2%" stop-color="#20A9FB"></stop><stop offset="22.63%" stop-color="#28A0EF"></stop><stop offset="34.18%" stop-color="#3690DA"></stop><stop offset="45.8%" stop-color="#497BBE"></stop><stop offset="57.37%" stop-color="#625F99"></stop><stop offset="58.53%" stop-color="#655C95"></stop><stop offset="63.67%" stop-color="#6F5F91"></stop><stop offset="72.3%" stop-color="#896886"></stop><stop offset="83.36%" stop-color="#B37774"></stop><stop offset="96.28%" stop-color="#ED8C5C"></stop><stop offset="100%" stop-color="#FF9254"></stop></linearGradient><linearGradient id="aw" x1="42.303%" x2="57.366%" y1="1.546%" y2="89.263%"><stop offset="0%" stop-color="#090000"></stop><stop offset="43.32%" stop-color="#FFF"></stop><stop offset="100%"></stop></linearGradient><linearGradient id="ax" x1="109.382%" x2="-11.857%" y1="73.861%" y2="21.516%"><stop offset="0%" stop-color="#270036"></stop><stop offset="48.66%" stop-color="#22003D"></stop><stop offset="100%" stop-color="#424577"></stop></linearGradient><linearGradient id="ay" x1="45.687%" x2="50.686%" y1="9.425%" y2="84.853%"><stop offset="0%" stop-color="#311842"></stop><stop offset="46.11%" stop-color="#190C4B"></stop><stop offset="100%" stop-color="#000054"></stop></linearGradient><linearGradient id="az" x1="52.22%" x2="43.975%" y1="52.24%" y2="41.253%"><stop offset="0%" stop-color="#270036"></stop><stop offset="59.36%" stop-color="#4F008B"></stop><stop offset="100%" stop-color="#4C24B1"></stop></linearGradient><linearGradient id="aA" x1="101.269%" x2="-5.883%" y1="42.514%" y2="53.619%"><stop offset="0%" stop-color="#311842"></stop><stop offset="46.11%" stop-color="#190C4B"></stop><stop offset="100%" stop-color="#000054"></stop></linearGradient><linearGradient id="aB" x1="57.077%" x2="45.478%" y1="61.181%" y2="42.214%"><stop offset="0%" stop-color="#1DACFF"></stop><stop offset="11.2%" stop-color="#20A9FB"></stop><stop offset="22.63%" stop-color="#28A0EF"></stop><stop offset="34.18%" stop-color="#3690DA"></stop><stop offset="45.8%" stop-color="#497BBE"></stop><stop offset="57.37%" stop-color="#625F99"></stop><stop offset="58.53%" stop-color="#655C95"></stop><stop offset="63.67%" stop-color="#6F5F91"></stop><stop offset="72.3%" stop-color="#896886"></stop><stop offset="83.36%" stop-color="#B37774"></stop><stop offset="96.28%" stop-color="#ED8C5C"></stop><stop offset="100%" stop-color="#FF9254"></stop></linearGradient><linearGradient id="aC" x1="41.336%" x2="54.925%" y1=".824%" y2="94.392%"><stop offset="0%" stop-color="#1DACFF"></stop><stop offset="11.2%" stop-color="#20A9FB"></stop><stop offset="22.63%" stop-color="#28A0EF"></stop><stop offset="34.18%" stop-color="#3690DA"></stop><stop offset="45.8%" stop-color="#497BBE"></stop><stop offset="57.37%" stop-color="#625F99"></stop><stop offset="58.53%" stop-color="#655C95"></stop><stop offset="63.67%" stop-color="#6F5F91"></stop><stop offset="72.3%" stop-color="#896886"></stop><stop offset="83.36%" stop-color="#B37774"></stop><stop offset="96.28%" stop-color="#ED8C5C"></stop><stop offset="100%" stop-color="#FF9254"></stop></linearGradient><radialGradient id="ab" cx="50.014%" cy="49.951%" r="59.556%" fx="50.014%" fy="49.951%" gradientTransform="matrix(.73838 0 0 1 .13 0)"><stop offset="0%" stop-color="#A6FFFF"></stop><stop offset="19.88%" stop-color="#A4FDFF"></stop><stop offset="31.25%" stop-color="#9FF4FF"></stop><stop offset="40.47%" stop-color="#95E6FF"></stop><stop offset="48.55%" stop-color="#87D3FF"></stop><stop offset="55.87%" stop-color="#76B9FF"></stop><stop offset="62.55%" stop-color="#609AFF"></stop><stop offset="65.24%" stop-color="#568BFF"></stop></radialGradient></defs><g fill="none"><path fill="url(#a)" d="M752.09 553.32s82.42-106.41-8.85-197.64c-59.09-59.06-77.19-71.01-84.41-101.92C643.31 187.3 586.63.5 421.73.5 143 .5 119.96 287.02 119.96 287.02S40.21 302.37 10.51 408.03C-17.63 508.15 22.3 558.25 22.3 558.25l729.79-4.93Z"></path><g fill="#FFF" transform="translate(265 26)"><circle cx="116.5" cy="2.68" r="1.91"></circle><path d="M185.81 59.96a.939.939 0 1 1-1.88 0 .939.939 0 1 1 1.88 0ZM73.55 76.1c0 1.43-1.15 2.58-2.58 2.58-1.43 0-2.58-1.15-2.58-2.58a2.58 2.58 0 1 1 5.16 0ZM4.28 64.1c0 1.1-.89 1.98-1.98 1.98-1.1 0-1.98-.89-1.98-1.98 0-1.1.89-1.98 1.98-1.98 1.09 0 1.98.88 1.98 1.98ZM177.45 7.73a1.81 1.81 0 1 1-1.81-1.81c1 .01 1.81.81 1.81 1.81Z"></path></g><path fill="url(#b)" d="M214.79 74.84c14.52 14.59 38.11 14.65 52.7.13 14.59-14.51 14.65-38.11.14-52.7-14.52-14.59-38.11-14.65-52.7-.13-14.59 14.51-14.65 38.11-.14 52.7Z" transform="translate(265 26)"></path><path fill="url(#c)" d="M.05 27.03h532.5v7.26H.05z" transform="translate(132 307)"></path><path fill="url(#d)" d="M.05 27.03 136.8.8h264.58l131.17 26.23z" transform="translate(132 307)"></path><path fill="#000" d="M321.83 341.29h153.5V464.5h-153.5z"></path><path fill="url(#e)" d="M95.87.29v200.94l61.96-77.74V.29z" transform="translate(164 341)"></path><path fill="url(#f)" d="M.05.29h8.19v200.94H.05z" transform="translate(164 341)"></path><path fill="url(#g)" d="M87.5.29h8.37v200.94H87.5z" transform="translate(164 341)"></path><path fill="#000" d="m171.12 542.23 15.26-17.86V341.29h-14.14z"></path><path fill="url(#h)" d="M11.58.29h75.91v183.08H11.58z" transform="translate(164 341)"></path><path fill="url(#i)" d="M11.58 2.89h75.91v56.4H11.58z" transform="translate(164 341)"></path><path fill="url(#j)" d="M11.58 65.04h75.91v54.34H11.58z" transform="translate(164 341)"></path><path fill="url(#k)" d="M11.58 125.69h75.91v55.08H11.58z" transform="translate(164 341)"></path><path fill="url(#l)" d="M36.52.29h31.26v9.3H36.52z" transform="translate(164 341)"></path><path fill="url(#m)" d="M36.52 61.5h31.26v9.89H36.52z" transform="translate(164 341)"></path><path fill="url(#n)" d="M36.52 121.6h31.26v9.89H36.52z" transform="translate(164 341)"></path><path fill="url(#o)" d="M62.19.29v200.94L.23 123.49V.29z" transform="translate(475 341)"></path><path fill="url(#p)" d="M149.82.29h8.19v200.94h-8.19z" transform="translate(475 341)"></path><path fill="url(#q)" d="M62.19.29h8.37v200.94h-8.37z" transform="translate(475 341)"></path><path fill="#000" d="m625.94 542.23-15.26-17.86V341.29h14.14z"></path><path fill="url(#r)" d="M70.56.29h75.91v183.08H70.56z" transform="translate(475 341)"></path><path fill="url(#s)" d="M70.56 2.89h75.91v59H70.56z" transform="translate(475 341)"></path><path fill="url(#t)" d="M70.56 65.04h75.91v56.93H70.56z" transform="translate(475 341)"></path><path fill="url(#u)" d="M70.56 125.69h75.91v55.08H70.56z" transform="translate(475 341)"></path><path fill="url(#v)" d="M90.29.29h31.26v9.3H90.29z" transform="translate(475 341)"></path><path fill="url(#w)" d="M90.29 61.5h31.26v9.3H90.29z" transform="translate(475 341)"></path><path fill="url(#x)" d="M90.29 121.6h31.26v9.3H90.29z" transform="translate(475 341)"></path><path fill="#000" d="M297.48 327.81h184l-20.44-9.08H320.5z" opacity=".4"></path><path fill="#000" d="M450.77 309.53a4.7 4.7 0 0 1-4.7 4.7h-110.4a4.7 4.7 0 0 1-4.7-4.7v-69.82a4.7 4.7 0 0 1 4.7-4.7h110.4c2.6 0 4.7 2.1 4.7 4.7v69.82Z"></path><path fill="url(#y)" d="M20.1 6.15h107.14v67.34H20.1z" transform="translate(317 235)"></path><path fill="url(#z)" d="m127.47 24.29-43 49.18h11.1l31.72-37.19z" opacity=".2" transform="translate(317 235)"></path><path fill="url(#A)" d="m20.31 38.22 35.6-31.37 45.48-.36-65.57 66.98-15.72.02z" opacity=".2" transform="translate(317 235)"></path><path fill="url(#B)" d="M.53 84.65h146.55v2.74H.53z" transform="translate(317 235)"></path><path fill="#000" d="M317.53 322.39s2.22 3.52 9 3.52h128.93s4.31.78 8.61-3.52H317.53Z"></path><path fill="url(#C)" d="m.53 84.65 15.91-5.9h114.2l16.44 5.9z" transform="translate(317 235)"></path><g transform="translate(298 385)"><ellipse cx="103.21" cy="142.25" fill="#31174E" rx="102.84" ry="15.97"></ellipse><path fill="url(#D)" d="M49.5 1.89 29.06 6.3s-5.29-3.88-7.93-1.59C18.49 7-2.97 68.84 1.57 82.43c3 8.99 11.81 15.86 11.81 15.86s.35 20.09 3.52 27.49c3.17 7.4 14.45 12.51 21.15 13.39 6.7.88 8.46.71 7.93.71-.53 0-.53 7.4-.53 7.4l5.29 1.94 4.58.18.18 1.23s22.38 1.76 25.73 1.23c3.35-.53 3.7-1.41 3.7-1.41s-1.23-7.58-4.23-10.22c-3-2.64-14.98-3.88-14.98-3.88l6.34-1.94s8.28 2.64 14.28 2.82l5.99.18-.18 9.16 5.29 2.29 4.76-.18v2.11s23.26 1.59 26.61.71l3.35-.88s-.18-8.64-5.46-11.1c-5.29-2.47-8.81-3.35-8.81-3.35l.71-35.07s14.8-13.22 16.57-18.68c1.76-5.46-.71-19.92-2.47-28.55-1.76-8.64-8.99-38.95-11.98-44.24-2.99-5.29-4.76-6.52-6.52-5.64-1.76.88-3 1.76-3 1.76L83.71.29 49.5 1.89Z" transform="translate(30)"></path><path fill="#000" d="m80.38 1.72 10.75 51.11s7.75.53 9.87 5.11c2.11 4.58 2.47 10.05 2.47 10.05l13.39-50.41 3.7-16.04-6.87-1.23-33.31 1.41ZM80.91 125.44s8.72-6.61 12.16-10.18c3.44-3.57 4.36-5.42 4.36-5.02 0 .4 16.79 15.2 16.79 15.2l-2.11 1.72-14.67-10.84s-5.55 5.55-9.52 8.06c-3.97 2.51-4.76 2.91-4.76 2.91l-2.25-1.85Z"></path><path fill="url(#E)" d="M70.34 118.43s-17.98 19.03-17.71 19.83c.27.8 2.91 1.32 4.23.26 1.32-1.06 8.86-6.74 8.86-6.74S57 140.64 57 141.16c0 .53 1.98 1.19 3.3.13 1.32-1.06 8.86-8.2 8.59-7.67-.27.53-7.53 9.12-7.53 9.12s1.59 1.72 3.17.53c1.59-1.19 16.92-16.65 16.92-16.65l-11.11-8.19Z" transform="translate(30)"></path><path fill="url(#F)" d="M53.95 126.76S69.28 143.55 71 143.41c1.72-.13 2.78-.4 1.06-2.25-1.72-1.85-7.8-9.91-7.8-9.52 0 .39 10.18 9.78 10.18 9.78s3.3.4 2.51-1.72-8.86-10.31-8.86-10.31 9.78 9.78 10.84 9.38c1.06-.4 2.11-.79.26-2.91-1.85-2.11-7.4-9.65-7.4-9.65s7.67 2.64 8.33 2.38c.66-.26 1.98-1.45 1.98-1.45L67.43 116.3c0 .02-8.19 9.27-13.48 10.46Z" transform="translate(30)"></path></g><path fill="url(#G)" d="M5.69 4.2S14.55.38 27.17.38c12.62 0 22.12 3.12 24.22 4.59 2.1 1.47 2.74 4.84 3.25 9.37.51 4.53 1.98 19.69.32 27.98-1.66 8.28-8.48 17.08-12.24 20.84-3.76 3.76-9.31 7.58-12.3 8.03-3 .45-6.82.06-9.94-2.04-3.12-2.1-11.34-8.99-15.49-16.95C.85 44.23.34 38.43.53 31.93c.19-6.5 1.08-21.25 2.8-24.41C4.86 4.71 5.69 4.2 5.69 4.2Z" transform="translate(371 343)"></path><path fill="#000" d="M390.77 368.3s-2.96-3.25-6.79-3.54c-3.82-.29-5.69 2.01-5.74 2.15-.05.14.29 1.1 1.2 1.29.91.19 8.56 1.01 11.33.1Z"></path><path fill="url(#H)" d="M19.77 25.3c-2.77.91-10.42.09-11.33-.1-.91-.19-1.24-1.15-1.2-1.29 0 0-.48-.02-1.05-.4-.57-.38-.76-2.45-.76-2.45s-.1.41-.1 1.12c0 .7.22 1.21.32 1.53.1.32-.54.48-.64.45-.1-.03.32.29.7.35.38.06.61.29-.13.73-.73.45-2.23 2.9-2.23 2.9s1.37-1.72 2.07-2.26c.7-.54 1.59-.51 2.58-.32s2.39 1.08 5.74 1.12c3.35.03 6.09-1.24 6.09-1.24l-.06-.14Z" opacity=".5" transform="translate(371 343)"></path><path fill="#000" d="M393.45 363.52s-1.19-.19-2.72-1.15c-1.53-.96-5.74-3.73-8.32-4.16-2.58-.43-4.97.1-6.41 1.15-1.43 1.05-1.62 1.43-1.62 1.43s1.53-3.97 5.88-4.3c4.35-.33 8.99 1.1 12 3.06 3 1.96 2.1 3.82 1.19 3.97Z"></path><path fill="url(#I)" d="M22.21 13.41s-.06-.04-.18-.1c-.12-.07-.3-.16-.53-.29-.46-.24-1.12-.58-1.92-.95-.81-.37-1.76-.78-2.81-1.14-.52-.18-1.07-.36-1.63-.51-.56-.15-1.14-.28-1.72-.37-.58-.09-1.17-.15-1.75-.14-.14.01-.29.01-.43.02s-.28.03-.42.04c-.14.02-.28.05-.42.07-.13.02-.27.06-.41.09-.27.06-.54.12-.8.2-.26.07-.51.13-.75.21-.24.08-.48.15-.71.23l-.33.12c-.11.04-.21.09-.32.13-.41.16-.78.35-1.1.52-.31.18-.58.35-.78.51-.2.16-.35.3-.44.41-.09.11-.13.17-.13.17s.03-.07.12-.18c.09-.11.23-.26.43-.43.2-.17.46-.35.77-.54.32-.18.68-.38 1.09-.55.1-.04.21-.09.31-.14.11-.04.22-.09.33-.13.22-.09.46-.17.7-.25.24-.09.5-.16.75-.24.26-.08.52-.15.79-.22.14-.04.27-.08.41-.11.14-.03.28-.06.43-.09l.44-.06.44-.03c.59-.02 1.2.01 1.8.09.6.08 1.19.19 1.77.32.58.13 1.14.3 1.67.46 1.07.34 2.05.72 2.88 1.07.83.35 1.51.67 1.98.91.24.12.42.21.55.28.13.07.19.1.19.1.14.07.19.25.12.39s-.25.19-.39.12c.01.01.01.01 0 .01Z" opacity=".5" transform="translate(371 343)"></path><path fill="url(#J)" d="M19.72 19.37c-1.53-.96-5.74-3.73-8.32-4.16-2.58-.43-4.97.1-6.41 1.15-.13.1-.26.19-.37.28-.26.22-.52.46-.78.73-.1.1 4.49-2.06 9.89.19s9.42 8.03 9.42 8.03-.36-2.96-1.91-5.43c-.42-.18-.95-.43-1.52-.79Z" opacity=".5" transform="translate(371 343)"></path><path fill="#000" d="M407.69 368.3s2.96-3.25 6.79-3.54c3.82-.29 5.69 2.01 5.74 2.15.05.14-.29 1.1-1.2 1.29-.91.19-8.56 1.01-11.33.1Z"></path><path fill="url(#K)" d="M36.69 25.3c2.77.91 10.42.09 11.33-.1.91-.19 1.24-1.15 1.2-1.29 0 0 .48-.02 1.05-.4.57-.38.77-2.45.77-2.45s.1.41.1 1.12c0 .7-.22 1.21-.32 1.53-.1.32.54.48.64.45.1-.03-.32.29-.7.35-.38.06-.61.29.13.73.73.45 2.23 2.9 2.23 2.9s-1.37-1.72-2.07-2.26c-.7-.54-1.59-.51-2.58-.32s-2.39 1.08-5.74 1.12c-3.35.03-6.09-1.24-6.09-1.24l.05-.14Z" opacity=".5" transform="translate(371 343)"></path><path fill="#000" d="M405.02 363.52s1.19-.19 2.72-1.15c1.53-.96 5.74-3.73 8.32-4.16 2.58-.43 4.97.1 6.41 1.15 1.43 1.05 1.62 1.43 1.62 1.43s-1.53-3.97-5.88-4.3c-4.35-.33-8.99 1.1-12 3.06s-2.1 3.82-1.19 3.97Z"></path><path fill="url(#L)" d="M33.97 12.91s.07-.04.19-.1c.12-.07.31-.16.55-.28.47-.23 1.15-.55 1.98-.91.83-.35 1.81-.73 2.88-1.07.54-.17 1.1-.33 1.67-.46a14.9 14.9 0 0 1 1.77-.32c.6-.08 1.2-.11 1.8-.09l.44.03c.15.01.29.04.44.06.14.02.29.06.43.09s.28.07.41.11c.27.07.54.14.79.22.26.08.51.15.75.24.24.08.48.16.71.25.11.04.22.09.33.13.11.04.21.09.31.14.41.18.78.37 1.09.55.31.19.58.37.77.54.2.17.35.31.43.43.09.11.12.18.12.18s-.04-.07-.13-.17c-.09-.11-.24-.25-.44-.41-.2-.16-.47-.33-.78-.51-.32-.17-.68-.35-1.1-.52-.1-.04-.21-.09-.32-.13l-.33-.12c-.22-.08-.46-.16-.71-.23-.24-.08-.5-.14-.75-.21-.26-.07-.53-.13-.8-.2-.14-.03-.28-.07-.41-.09-.14-.02-.28-.05-.42-.07-.14-.01-.28-.03-.43-.04-.14-.01-.29-.01-.43-.02-.58-.01-1.17.05-1.75.14-.58.09-1.16.22-1.72.37s-1.11.33-1.63.51c-1.05.36-2 .77-2.81 1.14a34.842 34.842 0 0 0-2.45 1.24c-.12.07-.18.1-.18.1-.14.08-.31.03-.39-.11-.07-.16-.02-.33.12-.41Z" opacity=".5" transform="translate(371 343)"></path><path fill="url(#M)" d="M36.74 19.37c1.53-.96 5.74-3.73 8.32-4.16 2.58-.43 4.97.1 6.41 1.15.13.1.26.19.37.28.26.22.52.46.78.73.1.1-4.49-2.06-9.89.19s-9.42 8.03-9.42 8.03.36-2.96 1.91-5.43c.42-.18.95-.43 1.52-.79Z" opacity=".5" transform="translate(371 343)"></path><path fill="#FFF" d="M378.53 375.61a3.82 3.82 0 1 1 7.64 0 3.82 3.82 0 0 1-7.64 0ZM412.04 375.61a3.82 3.82 0 1 1 7.64 0 3.82 3.82 0 0 1-7.64 0Z" opacity=".8"></path><path fill="url(#N)" d="M3.47 36.29s2 2.95 6.17 3.35c5.07.48 10.47-3.3 10.47-3.3s-2.58 2.82-5.93 3.78c-3.35.96-6.6.33-6.79.43-.19.1-1.29 1.1 2.01 7.98 3.3 6.88 6.93 14.58 6.93 14.58s-5.5-7.7-8.27-13.96c-2.77-6.26-3.15-8.99-2.25-9.46 0-.01-2-3.26-2.34-3.4Z" opacity=".5" transform="translate(371 343)"></path><path fill="url(#O)" d="M52.7 36.53s-2 2.95-6.17 3.35c-5.07.48-10.47-3.3-10.47-3.3s2.58 2.82 5.93 3.78c3.35.96 6.6.33 6.79.43.19.1 1.29 1.1-2.01 7.98-3.3 6.88-6.93 14.58-6.93 14.58s5.5-7.69 8.27-13.96c2.77-6.26 3.15-8.99 2.25-9.46 0-.01 2.01-3.26 2.34-3.4Z" opacity=".5" transform="translate(371 343)"></path><path fill="url(#P)" d="M25.46 22.91s-.48 7.6-1.15 8.51c-.67.91-4.16 4.97-4.11 6.45.05 1.48 1 3.01 1 3.01s-.81-2.25.14-3.49c.96-1.24 2.92-3.82 3.01-2.96.1.86-.81 4.3-.1 5.69.72 1.39 3.11 2.34 3.87 2.25.76-.1 2.82-.72 3.54-1.91.72-1.19.57-2.25.33-3.78-.24-1.53-.53-2.58 0-2.34.53.24 3.01 2.77 3.15 4.01.14 1.24-.19 2.68-.19 2.68s1.43-1.91.76-3.82c-.67-1.91-4.02-5.4-4.21-6.79-.19-1.39-.62-7.41-.67-7.27-.05.14-.67 7.65-.38 11.33.29 3.68 1 5.35-.19 6.17-1.2.81-2.58.43-3.58.19s-1.82-.96-1.43-3.01c.4-2.07.83-12.53.21-14.92Z" opacity=".5" transform="translate(371 343)"></path><path fill="#000" d="M393.16 384.02s1.05 1.1 1.72 1.29c.67.19.72-.81-.19-1.15-.91-.33-1.53-.14-1.53-.14ZM404.99 384.02s-1.05 1.1-1.72 1.29c-.67.19-.72-.81.19-1.15.9-.33 1.53-.14 1.53-.14Z"></path><path fill="url(#Q)" d="M14.18 1.77c-.71 0-1.45-.01-2.24-.04C4.45 1.48 1.11.68 1.08.67.98.64.93.53.96.43c.03-.1.14-.15.24-.12.04.01 3.41.8 10.75 1.04 7.06.24 10.76-.7 10.8-.71.1-.03.21.03.23.14.03.1-.04.21-.14.23-.03 0-3 .76-8.66.76Z" opacity=".5" transform="translate(387 393)"></path><g fill="url(#R)" opacity=".5" transform="translate(391 397)"><path d="M7.74 2.9c-1.24 0-2.32-.1-3.19-.24C2.01 2.27.56 1.55.5 1.52a.293.293 0 0 1-.13-.39C.44.99.61.93.76 1c.03.01 1.45.72 3.9 1.09 2.27.35 5.91.47 10.37-.92.15-.05.31.04.36.19.05.15-.04.31-.19.36-2.86.9-5.39 1.18-7.46 1.18Z" opacity=".7"></path></g><path fill="#000" d="M400.9 401.95c.13-.8.57-1.74.82-2.23a22.543 22.543 0 0 1-5.62.03c.38.59.95 1.72.69 3.06-.38 1.96-1.24 3.35-.96 5.69.29 2.34 1.15 6.93 1.63 7.17.48.24 2.77.29 3.11-.62.33-.91 1.58-6.74 1.34-8.22-.24-1.49-1.2-3.74-1.01-4.88ZM382.26 383.59s2.82 5.4 3.73 5.59c.91.19 6.31.19 7.65-.53 1.34-.72 1.39-1.91 2.34-2.53.96-.62 2.39.24 3.01.33v2.63s-2.25 2.82-3.49 3.06c-1.24.24-7.89 0-9.23-.19-1.34-.19-2.87-1.29-3.35-2.2-.48-.91-3.39-6.17-3.39-6.17h2.73v.01Z"></path><path fill="#000" d="M415.63 383.93s-2.77 5.07-3.68 5.26c-.91.19-6.31.19-7.65-.53-1.34-.72-1.39-1.91-2.34-2.53-.96-.62-2.39.24-3.01.33v2.63s2.25 2.82 3.49 3.06c1.24.24 7.89 0 9.22-.19 1.34-.19 2.87-1.29 3.35-2.2.48-.91 3.35-5.88 3.35-5.88l-2.73.05Z"></path><path fill="url(#S)" d="M16.59.89s-2.77 7.93-4.56 9.08c-1.78 1.15-10.6 5.53-11 7.2-.4 1.67-.4 3.55-.4 3.55v2.71s6.54 1.88 11.49 1.15 7.23-1.67 9.61-4.07c2.38-2.4 3.96-3.34 3.96-3.34l.4 1.98 8.22-3.76-.59-5.53-.59-8.66c.01.01-4.25 2.93-16.54-.31Z" transform="translate(349 310)"></path><path fill="#000" d="M358.86 332.7c-2.97.21-7.1-.95-9.21-1.66v2.4s6.54 1.88 11.49 1.15 7.23-1.67 9.61-4.07c2.38-2.4 3.96-3.34 3.96-3.34l.4 1.98 8.22-3.76-.44-4.06c-3.5 1.78-10.01 5.25-12.84 7.71-3.96 3.44-7.6 3.39-11.19 3.65Z"></path><path fill="url(#T)" d="M18.08.89s2.77 7.93 4.56 9.08c1.78 1.15 10.6 5.53 11 7.2.4 1.67.4 3.55.4 3.55v2.71s-6.54 1.88-11.49 1.15-7.23-1.67-9.61-4.07c-2.38-2.4-3.96-3.34-3.96-3.34l-.4 1.98-8.22-3.76.59-5.53.59-8.66c-.01.01 4.25 2.93 16.54-.31Z" transform="translate(414 310)"></path><path fill="#000" d="M438.81 332.7c2.97.21 7.1-.95 9.21-1.66v2.4s-6.54 1.88-11.49 1.15-7.23-1.67-9.61-4.07c-2.38-2.4-3.96-3.34-3.96-3.34l-.4 1.98-8.22-3.76.44-4.06c3.5 1.78 10.01 5.25 12.84 7.71 3.96 3.44 7.6 3.39 11.19 3.65ZM385.18 74.88l-1.85-6.14s-2.97-7.63-3.47-10.4c-.5-2.77-2.58-12.98.4-19.02 1.96-3.98 7.93-5.15 12.58-5.25 4.26-.09 9.9 1.55 11.1 8.62.99 5.85 1.29 12.29 1.29 15.06 0 2.77-2.28 10.6-2.28 10.6l-2.09 6.72-7.69 8.21-7.99-8.4Z"></path><path fill="#FFF" d="M379.81 44.82c1.08-.43.87-7.36 10.82-6.06 9.95 1.3 13.42 5.84 15.36 2.38 1.95-3.46 2.16-3.9 2.16-3.9s-2.38-3.68-4.33-4.98c-2.58-1.72-13.2-5.63-21.21-1.51-8.01 4.11-6.71 11.69-6.71 11.69"></path><path fill="url(#U)" d="M119.09 54.41c-.79-2.77-32.2-28.53-32.2-28.53s-4.26 3.63-5.45 5.75c-1.19 2.11-3.17 7.23-3.17 7.23l18.09 12.38s-17.43 3.31-18.89 2.92c-1.45-.4-4.23-2.25-4.23-2.25l-5.42-5.02-3.7 6.08-3.97 2.32-3.97-2.32-4.02-5.95-5.09 4.89s-2.77 1.85-4.23 2.25c-1.45.4-17.68-2.7-17.68-2.7l16.88-12.59s-1.98-5.12-3.17-7.23c-1.19-2.11-5.45-5.75-5.45-5.75S2.01 51.65 1.22 54.42c-.79 2.77-.59 6.94 1.19 8.52 1.78 1.59 27.74 13.14 27.74 13.14s4.65 42.23 3.57 43.86c-2.11 3.17-1.39 5.22-1.39 5.22s11.92 3.27 25.91 3.91v.09c.64 0 1.28-.01 1.91-.02.63.01 1.26.02 1.91.02v-.09c13.99-.63 25.91-3.91 25.91-3.91s.73-2.05-1.39-5.22c-1.08-1.62 3.57-43.86 3.57-43.86s25.96-11.56 27.74-13.14c1.79-1.6 1.99-5.76 1.2-8.53Z" transform="translate(333 28)"></path><path fill="url(#V)" d="M38.59 121.12c-4.13-11.54-8.87-50.64-8.87-50.64l-.86 5c.83.37 1.31.58 1.31.58s4.65 42.23 3.57 43.86c-2.11 3.17-1.39 5.22-1.39 5.22s4.81 1.32 11.91 2.45c-.01.01-4.81-4.05-5.67-6.47Z" transform="translate(333 28)"></path><path fill="url(#W)" d="m78.27 38.85 20.69 13.68 6.49 1.51" transform="translate(333 28)"></path><path fill="url(#X)" d="M42.05 38.85 22.36 52.96l-6.93 1.3" transform="translate(333 28)"></path><path fill="url(#Y)" d="M119.4 59.58c-9.07 6.05-28.88 11.99-28.88 11.99l-.36 4.5s25.96-11.56 27.74-13.14c.8-.71 1.28-1.95 1.5-3.35Z" transform="translate(333 28)"></path><path fill="url(#Z)" d="M29.71 70.49S7.92 63.12 1.15 60.65c.26.95.68 1.76 1.27 2.28 1.78 1.59 27.74 13.14 27.74 13.14l-.45-5.58Z" transform="translate(333 28)"></path><path fill="#1A0C4D" d="M382.51 65.92s-1.96.54-2.45-.26c-.5-.79-3.57-6.14-2.87-7.53.69-1.39 2.48-1.39 2.48-1.39s2.15 7.99 2.84 9.18Z"></path><path fill="#FFF" d="M368.67 55.76c-.29-.12 2.38-6.44 3.27-7.13.89-.69 15.75-3.86 16.65-3.37.89.5.5 1.98.5 1.98s-6.04 10.4-4.76 10.4c1.29 0 3.17-.4 4.16-.89.99-.5 2.77-1.59 3.86-1.19 1.09.4.99.99 0 1.98s-5.35 3.57-7.43 4.26-4.76 1.98-6.64 2.28c-1.88.3-3.86.4-3.86.4s-4.57-8.23-5.75-8.72Z"></path><path fill="url(#aa)" d="m34.41 126.41.53 7.4s8.72 3.83 24.44 3.83 27.61-3.83 27.61-3.83l-.13-8.46s-21.4 7.4-52.45 1.06Z" transform="translate(333 28)"></path><path fill="url(#ab)" d="M67.3 136.78c0 .44-.36.79-.79.79H56.47c-.44 0-.79-.35-.79-.79v-7c0-.44.36-.79.79-.79h10.04c.44 0 .79.36.79.79v7Z" transform="translate(333 28)"></path><path fill="#000" d="M367.94 161.8s-2.39 93.87-3.2 108.15c-.01.23-.43 41.1-.43 41.1s8.86 2.63 14.47 1.67c3.67-.63 3.96-1.25 3.96-1.25l9.91-109.88 2.97-.42 18.63 110.3s4.95 1.98 11.1 1.46c2.28-.19 7.03-1.98 7.03-1.98L419.99 161.8s-25.83 7.86-52.05 0Z"></path><path fill="#FFF" d="m380.07 79.9-3.83 2.03 8.28-.97 8.64 2.31-7.83-8.31zM393.28 83.13l7.55-2.7 9.81 1.88-4.38-2.54-5.43-4.89z"></path><path fill="#1A0C4D" d="M403.94 64.38c-.12.27 1.98.59 2.48-1.19.5-1.78 1.59-5.25 1.29-6.54-.3-1.29-2.48-.89-2.48-.89s-.5 6.73-1.29 8.62Z"></path><path fill="#FFF" d="M417.68 55.76c.29-.12-2.38-6.44-3.27-7.13-.89-.69-15.75-3.86-16.64-3.37-.89.5-.5 1.98-.5 1.98s6.04 10.4 4.76 10.4c-1.29 0-3.17-.4-4.16-.89-.99-.5-2.77-1.59-3.86-1.19-1.09.4-.99.99 0 1.98s5.35 3.57 7.43 4.26 4.76 1.98 6.64 2.28c1.88.3 3.86.4 3.86.4s4.55-8.23 5.74-8.72Z"></path><path fill="url(#ac)" d="m65.52 19.07-4.1 1.72s-.59 1.85-.59 3.3c0 1.45.46 3.5.46 3.5l7.73 2.05s-6.47-3.57-3.5-10.57Z" transform="translate(333 28)"></path><path fill="url(#ad)" d="m54.95 19.07 4.1 1.72s.59 1.85.59 3.3c0 1.45-.46 3.5-.46 3.5l-7.73 2.05s6.47-3.57 3.5-10.57Z" transform="translate(333 28)"></path><path fill="url(#ae)" d="M58.19 20.39h4.23v6.74h-4.23z" transform="translate(333 28)"></path><path fill="url(#af)" d="M58.19 22.44c0-1.09.89-1.98 1.98-1.98 1.09 0 1.98.89 1.98 1.98 0 1.09-.89 1.98-1.98 1.98-1.09 0-1.98-.89-1.98-1.98Z" transform="translate(333 28)"></path><path fill="url(#ag)" d="M32.49 23.38c0-6.47 5.25-11.72 11.72-11.72 6.47 0 11.72 5.25 11.72 11.72 0 6.47-5.25 11.72-11.72 11.72-6.48-.01-11.72-5.25-11.72-11.72Z" transform="translate(333 28)"></path><path fill="url(#ah)" d="M35.51 23.38c0-4.8 3.89-8.69 8.69-8.69 4.8 0 8.69 3.89 8.69 8.69 0 4.8-3.89 8.69-8.69 8.69a8.69 8.69 0 0 1-8.69-8.69Z" transform="translate(333 28)"></path><path fill="url(#ai)" d="M64.66 24.1c0-6.47 5.25-11.72 11.72-11.72 6.47 0 11.72 5.25 11.72 11.72 0 6.47-5.25 11.72-11.72 11.72-6.48 0-11.72-5.25-11.72-11.72Z" transform="translate(333 28)"></path><path fill="url(#aj)" d="M67.68 24.1c0-4.8 3.89-8.69 8.69-8.69 4.8 0 8.69 3.89 8.69 8.69 0 4.8-3.89 8.69-8.69 8.69a8.69 8.69 0 0 1-8.69-8.69Z" transform="translate(333 28)"></path><path fill="url(#ak)" d="m60.28 55.13 2.3 22.7-2.07 28.29 2.6 22.51-2.95.49-2.59-23.02 2.08-27.97-2.31-23.65 2.94.65" transform="translate(333 28)"></path><path fill="#000" d="M540.27 315.66s-.92 4.08-.92 5.59c0 1.5.5 5.59.5 5.59l7.09-.17.33-1.75 2 1.92 19.84-.17s-.33-3.08-2.5-3.92c-2.17-.83-5.92-.33-8.09-1.58s-9.96-6.41-9.96-6.41l-8.29.9Z"></path><path fill="#FFF" d="M529.71 137.1s-5.95-4.95-6.78-7.89c-.83-2.95-.17-5.22-.17-5.22s-1.56-5.34 1.22-8.56c2.78-3.22 8.78-4.78 12.67-3.95 3.89.83 8.11 3.33 9.28 3.11 1.17-.22 1.28-.89 1.28-.89s.67 6.17-2.83 6.22c-3.5.06-7.23 0-8.5.56-1.28.56-2.17.94-2.17.94s.28 2.45-.05 3.72c-.33 1.28-.83 1.83-.83 1.83s-2.61-2.28-3.95-1.95c-1.33.33-3.11 3.22-1.33 5.17 1.78 1.95 3.78 2.28 3.78 2.28l-1.62 4.63Z"></path><path fill="#000" d="M547.38 126.71s.06-.22-.61-3c-.67-2.78-2.39-3.78-2.39-3.78-3.5.06-7.23 0-8.5.56-1.28.56-2.17.94-2.17.94s.28 2.45-.05 3.72c-.33 1.28-.83 1.83-.83 1.83s-2.61-2.28-3.95-1.95c-1.33.33-3.11 3.22-1.33 5.17 1.78 1.95 3.78 2.28 3.78 2.28l-1.61 4.61s-.33 3.56-.39 3.78c-.06.22 2.22.06 4.61.33 2.39.28 9.23 2.06 9.23 2.06l-.28-2s5.39.11 6.17-.39c.78-.5-.33-7.45-.33-7.45s2.89-1.28 3.11-1.61c.21-.32-4.46-5.1-4.46-5.1ZM564.03 131.92s-1.95-2.38-3.52-2.58c-1.57-.19-3.52-.03-3.82-.65-.3-.62-1.8-3.89-2.14-4.44-.34-.56-2.5-2.84-2.1-3.38.4-.53 2.44.3 3.88 1.54s3.45 3.61 4.24 3.62c.8.01 9.6-1.88 9.6-1.88s.84 2.21.92 3.16c.08.95 1.25 2.81 1.25 2.81l-8.31 1.8Z"></path><path fill="#FFF" d="M587.4 126.25c-.25-.02 1.02-1.85 1.02-1.85s2.89.13 5.21 1.1c2.32.98 2.31 1.75 2.31 1.75s-.81 2.72-.78 2.45c.03-.25-2.64-2.95-7.76-3.45ZM564.51 134.18l-.94-2.11 9.3-1.96.96 1.77z"></path><path fill="url(#al)" d="M134.78.57s1.77 1.17 2.67 3.97c.9 2.79-.61 5.4-.61 5.4L43.48 29s-3.09-.99-2.87-4.1" transform="translate(507 99)"></path><path fill="url(#am)" d="M93.56 10.33 61.4 18.55s-.59 1.41.7 5.99c.3 1.07.82 1.06.82 1.06l32.28-6.46c.01-.01-1.75-6.81-1.64-8.81Z" transform="translate(507 99)"></path><path fill="url(#an)" d="M91.1 10.96c.19 2.09.67 5.62 1.85 8.63l2.26-.45s-1.76-6.81-1.64-8.8l-2.47.62Z" transform="translate(507 99)"></path><path fill="#000" d="M560.22 125.95s-4.7-3.93-4.44-5.17c.26-1.24 2.17-1.34 2.17-1.34s1.31-1.4 2.29-1.31c.98.09.98.65.98.65s.51-1.41 1.42-1.42c.9-.01 1.03.87 1.03.87s.82-1.3 2.09-1.16c1.28.14 1.79 1.57 1.79 1.57s-.94 1.27-.77 2.08c.17.82 1.47 3.33 1.19 3.67-.29.34-4.15 2.59-7.75 1.56ZM588.39 124.26s.78-2.05.62-2.55c-.16-.5-3.4-3.92-3.51-5.61-.11-1.69.87-4.43 1.4-4.59.53-.17 1.13-.29 1.13-.29s2.23-1.33 3.53-1.6c1.31-.26 2.94-.3 2.94-.3s2.02-.11 2.48.21l.46.32s-.78 4.58-.71 5.75c.06 1.17 1.12 3.32 1.07 3.92-.05.6-1.99 4.77-1.99 4.77s-.25 2.41-.29 2.24c-.01-.16-2.34-1.58-7.13-2.27Z"></path><path fill="url(#ao)" d="m42.58 48.47 19.12-2.58-4.67-10.54 10.43-2.7 4.9 8.28L67.13 51l-20.82.79c.01.01-2.64-2.6-3.73-3.32Z" transform="translate(507 99)"></path><path fill="url(#ap)" d="M18.76 41.99s9.34-.67 16.45 2c7.11 2.67 11.23 8.78 11.23 8.78s5.45 13.12 6.34 16.45c.89 3.33 5 18.56 5 20.23 0 1.67.22 22.9-.11 24.34-.33 1.44-1.67 2.89-1.67 2.89l-34.23 2.78s2.78-16.12 2.78-18.34c0-2.22-.67-8.56-1-10.45-.33-1.89-9.11-32.9-9.11-33.9s4.33-10.67 4.33-10.67v-4.11h-.01Z" transform="translate(507 99)"></path><path fill="url(#aq)" d="M57.81 94.51c-.02-2.63-.03-4.6-.03-5.06 0-1.67-4.11-16.89-5-20.23-.89-3.33-6.34-16.45-6.34-16.45s-4.11-6.11-11.23-8.78c-7.11-2.67-16.45-2-16.45-2v4.11s10.45.33 15.78 2.89c5.34 2.56 11.12 14.67 13.45 20.23 2.33 5.56 9.67 25.45 9.67 25.45s.06-.06.15-.16Z" transform="translate(507 99)"></path><path fill="url(#ar)" d="M29.8 53.09s8.96-1.12 14.84-1.18c5.89-.05 22.49-.9 22.49-.9s6.35-12.39 8.83-16.97c2.48-4.58 4.44-6.79 4.44-6.79s3.2.83 5.03 1.48 2.72 1.97 2.72 1.97-7.02 23.95-8.35 26.37c-1.33 2.42-5.27 4.8-7.93 5.68-2.66.88-21.36 4.3-28.53 4.72-7.17.42-12.08-.29-12.08-.29s-4.04-4.29-3.96-8.39c.1-4.08 2.5-5.7 2.5-5.7Z" transform="translate(507 99)"></path><path fill="#FFF" d="m575.33 151.12 12.56-24.53-.5-.31c-.19.22-2.07 2.42-4.42 6.77-2.48 4.58-8.83 16.97-8.83 16.97s-16.61.85-22.49.9c-5.89.05-14.84 1.18-14.84 1.18s-.14.1-.35.29c3.75-.21 38.87-1.27 38.87-1.27Z" opacity=".5"></path><path fill="#000" d="M531.32 218.24c0 .44 1.33 2.22 2.22 3.33.89 1.11 1.33 1.44 1.33 1.44l4.67 40.68s-1.22 7.78-1 17.12c.22 9.34.78 35.01.78 35.01l11.34-.56s4.89-45.91 5.78-50.02c.89-4.11 1.67-17.78 2.45-29.12.78-11.34.78-20.45.78-20.45l-28.35 2.57Z"></path><path fill="#000" d="M534.88 223.02c-.33.44-5.78 36.35-6.67 38.68-.89 2.33-10 21.9-11.67 26.9s-5.11 22.79-5.11 22.79 10.78 3 10.78 2.67c0-.33 7.56-22.67 11.56-28.79 4-6.11 4.78-7 4.78-7s.11-7.22.56-10.89c.44-3.67.56-4 .56-4l-4.79-40.36Z"></path><path fill="#000" d="M512.17 311.58s-2.83 4.58-3.42 6.09c-.58 1.5-1.17 4.5-1.17 4.5l7.42 2.33 1.67-1.67-.58 1.83s5.59 2.17 6.92 2.25c1.33.08 13.84-.25 13.84-.25s.42-2.92-3.08-4.33c-3.5-1.42-5.09-.17-7.5-1.75-2.42-1.58-5.67-6.75-5.67-6.75l-8.43-2.25Z"></path><path fill="url(#as)" d="M.45 12.8s-.18 1.94.7 6.16c.88 4.23 1.76 5.99 1.76 5.99l44.72-7.4s1.94-3.3.53-9.33c-1.35-5.75-3.52-7.4-3.52-7.4L.45 12.8Z" transform="translate(600 95)"></path><path fill="url(#at)" d="m46.35 17.77 1.28-.21s1.94-3.3.53-9.33c-1.35-5.75-3.52-7.4-3.52-7.4l-1.74.47c1.61 2.16 4.73 7.63 3.45 16.47Z" transform="translate(600 95)"></path><g fill="#000"><path d="M273.12 267.02s-.83 8.49-2.9 10.97c-2.07 2.48-4.55 6.42-9.11 6-4.55-.41-46.15-10.21-46.15-10.21l-.97 46.5s-9.11.83-12.42.55c-3.31-.28-5.66-1.52-5.66-1.52s-1.52-52.98-1.24-54.5c.28-1.52 5.24-11.04 9.24-10.9 4.01.14 69.21 13.11 69.21 13.11Z"></path><path d="M197.06 319.69s-5.69 4.04-9.11 4.76c-3.41.72-7.35 1.55-8.18 2.69-.83 1.14-.21 3-.21 3s16.35 1.97 21.01 1.86c4.66-.1 5.59-.41 5.59-.41l1.55-1.97-.1 2.17 8.28-.31s.21-4.86-.52-7.04c-.72-2.17-1.76-4.14-1.76-4.14s-12 1.98-16.55-.61ZM239.49 279.43s-3.21 41.29-2.9 42.53c.31 1.24 3.1 6.52 6.11 7.24 3 .72 54.74.52 54.74.21 0-.31-.1-7.45-.1-11.38 0-3.93-.62-5.9-.62-5.9l-42.33 1.76s5.07-15.63 6.31-20.9c1.24-5.28 1.97-8.9 1.97-8.9s-5.07-.83-23.18-4.66Z"></path><path d="M296.71 312.13c-.04-.69 2.69-3 4.24-4.45 1.55-1.45 3.42-1.97 3.42-1.97l5.79 8.28s1.04 3.31 3.31 6.21c2.28 2.9 7.66 12.21 7.76 13.04.1.83-2.59 3.52-6.31 1.65-3.73-1.86-12.21-10.35-14.18-10.66-1.97-.31-3.1-.52-3.1-.52s-.72-8.37-.93-11.58Z"></path></g><path fill="#FFF" d="M251.11 185.92s4.87-7.45 4.8-10.97c-.08-3.52-1.58-5.8-1.58-5.8s-.09-6.39-4.23-9c-4.14-2.61-11.27-2.3-15.27-.07s-7.8 6.4-9.16 6.55c-1.36.15-1.71-.55-1.71-.55s1.35 7.01 5.22 5.89c3.87-1.12 7.95-2.44 9.54-2.26 1.59.18 2.7.31 2.7.31s.52 2.78 1.32 4.08c.8 1.29 1.54 1.74 1.54 1.74s2.1-3.39 3.68-3.47c1.58-.08 4.51 2.5 3.21 5.24-1.3 2.74-3.39 3.78-3.39 3.78l3.33 4.53Z"></path><path fill="#000" d="M228.17 180.44s-.14-.23-.34-3.51 1.35-4.96 1.35-4.96c3.87-1.12 7.95-2.44 9.54-2.26 1.59.18 2.7.31 2.7.31s.52 2.78 1.32 4.08c.8 1.29 1.54 1.74 1.54 1.74s2.1-3.39 3.68-3.47c1.58-.08 4.51 2.5 3.21 5.24-1.3 2.74-3.39 3.78-3.39 3.78l3.33 4.53s1.57 3.8 1.7 4.03c.14.23-2.43.81-4.96 1.92-2.53 1.11-9.45 5.37-9.45 5.37l-.37-2.29s-5.89 1.94-6.92 1.65c-1.02-.29-2.14-8.3-2.14-8.3s-3.61-.43-3.97-.72c-.36-.3 3.17-7.14 3.17-7.14ZM208.78 196.82s.67-3.48 2.15-4.54 3.55-1.96 3.5-2.75c-.04-.79-.31-4.92-.27-5.67.04-.75.97-4.24.27-4.56-.7-.32-2.31 1.64-3.08 3.69-.78 2.04-1.51 5.55-2.31 5.99-.8.45-10.74 3.36-10.74 3.36s.36 2.7.8 3.7c.44 1 .28 3.53.28 3.53l9.4-2.75Z"></path><path fill="#FFF" d="M182.02 203.88c.24-.16-2.04-1.31-2.04-1.31s-2.85 1.71-4.67 3.97c-1.81 2.26-1.38 3.03-1.38 3.03s2.31 2.3 2.13 2.05c-.17-.24 1.05-4.43 5.96-7.74ZM209.52 199.37l-.21-2.65-10.48 3.11.01 2.31z"></path><path fill="url(#au)" d="M115.14 20.32 6.54 47.29s-1.15 2.16-.53 5.48c.62 3.32 3.58 5.12 3.58 5.12l104.89-31.85c.01 0 2.59-2.7.66-5.72Z" transform="translate(111 158)"></path><path fill="url(#av)" d="m53.38 45.18 35.14-10.93s.57-1.59-1.12-6.59c-.4-1.17-.97-1.12-.97-1.12l-35.37 8.99s2.34 7.44 2.32 9.65Z" transform="translate(111 158)"></path><path fill="url(#aw)" d="m53.89 34.81-2.83.72s2.34 7.44 2.32 9.65l2.79-.87c-.03-4.46-1.32-7.7-2.28-9.5Z" transform="translate(111 158)"></path><path fill="#000" d="M209.36 188.68s2.61-6.55 1.66-7.67c-.94-1.11-2.93-.17-2.93-.17s-2.09-.7-3.03-.07c-.95.62-.64 1.2-.64 1.2s-1.29-1.14-2.21-.66c-.92.48-.56 1.44-.56 1.44s-1.54-.87-2.75-.03-.95 2.57-.95 2.57 1.64.77 1.92 1.69c.28.92.34 4.17.8 4.37.47.19 5.6.35 8.69-2.67ZM179.98 202.57s-1.88-1.56-1.99-2.13c-.11-.57 1.35-5.63.56-7.33-.79-1.7-3.24-3.82-3.87-3.69-.63.13-1.3.33-1.3.33s-2.97-.09-4.44.36c-1.47.45-3.15 1.3-3.15 1.3s-2.11.98-2.4 1.54l-.3.56s3.24 4.02 3.8 5.19c.56 1.17.64 3.82 1.01 4.37.37.55 4.57 3.55 4.57 3.55s1.54 2.2 1.49 2.02c-.07-.19 1.53-2.82 6.02-6.07Z"></path><path fill="url(#ax)" d="m120.91 46.64-20.76 7.87-1.04-13.22-12.03 2.98-.42 11.06 10.8 7.32 21.49-10.6c0 .01 1.26-4.09 1.96-5.41Z" transform="translate(111 158)"></path><path fill="url(#ay)" d="M145.76 30.87s-10.49 2.41-17.42 7.75c-6.93 5.33-9.39 13.44-9.39 13.44s-1.57 16.26-1.42 20.23c.15 3.97.76 22.1 1.32 23.94.56 1.83 7.48 25.26 8.33 26.74.85 1.48 2.81 2.62 2.81 2.62l38.59-8.49s-8.49-16.79-9.24-19.24c-.75-2.44-2.15-9.64-2.42-11.83-.27-2.19-1.07-39.26-1.4-40.36-.34-1.1-8.37-10.27-8.37-10.27l-1.39-4.53Z" transform="translate(111 158)"></path><path fill="url(#az)" d="M120.52 101.81c-.87-2.9-1.51-5.07-1.67-5.58-.56-1.83-1.17-19.97-1.32-23.94-.15-3.97 1.42-20.23 1.42-20.23s2.46-8.11 9.39-13.44c6.93-5.33 17.42-7.75 17.42-7.75l1.39 4.52s-11.38 3.89-16.39 8.5c-5.01 4.61-7.28 19.89-7.97 26.79-.69 6.9-2.06 31.26-2.06 31.26l-.21-.13Z" transform="translate(111 158)"></path><path fill="url(#aA)" d="M136.37 44.31s-9.68 3.77-15.66 6.94c-5.98 3.17-23.25 11.41-23.25 11.41S84.25 53.6 79.23 50.32c-5.02-3.28-8.21-4.44-8.21-4.44s-2.78 2.59-4.28 4.25c-1.5 1.66-1.67 3.49-1.67 3.49S85.3 74 87.96 75.73c2.67 1.72 7.96 1.97 11.13 1.4 3.17-.57 23.96-7.35 31.45-10.84 7.49-3.5 12.06-6.91 12.06-6.91s1.74-6.55-.59-10.65c-2.33-4.1-5.64-4.42-5.64-4.42Z" transform="translate(111 158)"></path><path fill="#FFF" d="M196.67 213.96c9.89 7.16 11.71 8.59 12.23 8.33.52-.26 37.35-19.39 37.35-19.39l-.38.01c-2.95 1.18-9.62 3.94-14.17 6.35-5.98 3.17-23.25 11.41-23.25 11.41s-13.21-9.06-18.23-12.34c-5.02-3.28-8.21-4.44-8.21-4.44l-.05.44c.01 0 4.82 2.47 14.71 9.63Z" opacity=".5"></path><path fill="url(#aB)" d="M49.96.73s1.19 1.8 2.54 6.39 1.42 6.77 1.42 6.77L6.34 30.09s-3.63-2.21-5.4-8.84c-1.69-6.33-.43-9.07-.43-9.07L49.96.73Z" transform="translate(111 191)"></path><path fill="url(#aC)" d="m7.7 29.63-1.37.47S2.7 27.89.93 21.26C-.76 14.93.5 12.19.5 12.19l1.95-.45C2 14.68 1.82 21.65 7.7 29.63Z" transform="translate(111 191)"></path></g></svg>